# Blender v2.81 (sub 16) OBJ File: 'flatSurface.blend'
# www.blender.org
mtllib flatSurface.mtl
o Plane_Plane.001
v -0.514434 0.514434 -0.000000
v -0.514434 -0.514434 -0.000000
v 0.514434 0.514434 0.000000
v 0.514434 -0.514434 -0.000000
v -0.514434 0.514434 -0.029868
v -0.514434 -0.514434 -0.029868
v 0.514434 0.514434 -0.029868
v 0.514434 -0.514434 -0.029868
v -0.485566 0.485566 -0.028868
v -0.485566 -0.485566 -0.028868
v 0.485566 0.485566 -0.028868
v 0.485566 -0.485566 -0.028868
v -0.485566 0.485566 -0.001000
v -0.485566 -0.485566 -0.001000
v 0.485566 0.485566 -0.001000
v 0.485566 -0.485566 -0.001000
vt 0.000000 0.000000
vt 1.000000 0.000000
vt 1.000000 1.000000
vt 0.000000 1.000000
vt 0.000000 0.000000
vt 0.000000 1.000000
vt 1.000000 1.000000
vt 1.000000 0.000000
vt 0.000000 0.000000
vt 0.000000 1.000000
vt 1.000000 1.000000
vt 1.000000 0.000000
vt 0.000000 0.000000
vt 1.000000 0.000000
vt 1.000000 1.000000
vt 0.000000 1.000000
vn -0.0000 -0.0000 1.0000
vn 0.0000 0.0000 -1.0000
vn 0.0000 1.0000 0.0000
vn -1.0000 0.0000 0.0000
vn 0.0000 -1.0000 0.0000
vn 1.0000 0.0000 0.0000
usemtl mat
s off
f 1/1/1 2/2/1 4/3/1 3/4/1
f 5/5/2 7/6/2 8/7/2 6/8/2
f 1/1/3 3/4/3 7/6/3 5/5/3
f 2/2/4 1/1/4 5/5/4 6/8/4
f 4/3/5 2/2/5 6/8/5 8/7/5
f 3/4/6 4/3/6 8/7/6 7/6/6
f 9/9/2 11/10/2 12/11/2 10/12/2
f 13/13/1 14/14/1 16/15/1 15/16/1
f 9/9/3 13/13/3 15/16/3 11/10/3
f 10/12/4 14/14/4 13/13/4 9/9/4
f 12/11/5 16/15/5 14/14/5 10/12/5
f 11/10/6 15/16/6 16/15/6 12/11/6
